<?xml version="1.0" encoding="utf-8"?>
<!-- Svg Vector Icons : http://www.onlinewebfonts.com/icon -->
<!DOCTYPE svg PUBLIC "-//W3C//DTD SVG 1.1//EN" "http://www.w3.org/Graphics/SVG/1.1/DTD/svg11.dtd">
<svg version="1.1" xmlns="http://www.w3.org/2000/svg" xmlns:xlink="http://www.w3.org/1999/xlink" x="0px" y="0px" viewBox="0 0 1000 1000" enable-background="new 0 0 1000 1000" xml:space="preserve">
<metadata> Svg Vector Icons : http://www.onlinewebfonts.com/icon </metadata>
<g><path d="M932,442c0-238.6-193.4-432-432-432C261.4,10,68,203.4,68,442c0,125.7,60.4,250.4,146.1,329.3l128.8-107C273.2,615,227.6,533.9,227.6,442c0-150.4,122-272.4,272.4-272.4c150.4,0,272.4,122,272.4,272.4c0,144.6-112.7,262.5-255,271.5l-0.8-90.4L276.7,808.8L519.9,990l-1.1-116.9C748.6,863.2,932,674.3,932,442z"/></g>
</svg>